<svg width="36" height="36" viewBox="0 0 36 36" fill="none" xmlns="http://www.w3.org/2000/svg">
<path d="M21 13.95V18.3H24.9C25.2 18.3 25.35 18.6 25.35 18.9L24.75 21.75C24.75 21.9 24.45 22.05 24.3 22.05H21V33H16.5V22.2H13.95C13.65 22.2 13.5 22.05 13.5 21.75V18.9C13.5 18.6 13.65 18.45 13.95 18.45H16.5V13.5C16.5 10.95 18.45 9 21 9H25.05C25.35 9 25.5 9.15 25.5 9.45V13.05C25.5 13.35 25.35 13.5 25.05 13.5H21.45C21.15 13.5 21 13.65 21 13.95Z" stroke="black" stroke-width="1.5" stroke-miterlimit="10" stroke-linecap="round"/>
<path d="M22.5 33H13.5C6 33 3 30 3 22.5V13.5C3 6 6 3 13.5 3H22.5C30 3 33 6 33 13.5V22.5C33 30 30 33 22.5 33Z" stroke="black" stroke-width="1.5" stroke-linecap="round" stroke-linejoin="round"/>
</svg>
