<svg width="32" height="24" viewBox="0 0 32 24" fill="none" xmlns="http://www.w3.org/2000/svg">
<path d="M11.4 0C10.8477 0 10.4 0.447715 10.4 1V3.8C10.4 4.35229 10.8477 4.8 11.4 4.8H17.4C17.9523 4.8 18.4 5.24772 18.4 5.8V23C18.4 23.5523 18.8477 24 19.4 24H22.2C22.7523 24 23.2 23.5523 23.2 23V5.8C23.2 5.24771 23.6477 4.8 24.2 4.8H30.2C30.7523 4.8 31.2 4.35228 31.2 3.8V0.999999C31.2 0.447715 30.7523 0 30.2 0H11.4ZM0.799988 11.8C0.799988 12.3523 1.2477 12.8 1.79999 12.8H4.59999C5.15227 12.8 5.59999 13.2477 5.59999 13.8V23C5.59999 23.5523 6.0477 24 6.59999 24H9.39999C9.95227 24 10.4 23.5523 10.4 23V13.8C10.4 13.2477 10.8477 12.8 11.4 12.8H14.2C14.7523 12.8 15.2 12.3523 15.2 11.8V9C15.2 8.44771 14.7523 8 14.2 8H1.79999C1.2477 8 0.799988 8.44772 0.799988 9V11.8Z" fill="black"/>
</svg>
