<svg width="26" height="26" viewBox="0 0 26 26" fill="none" xmlns="http://www.w3.org/2000/svg">
<path d="M21.8422 7.31579C23.5862 7.31579 25.0001 5.90195 25.0001 4.15789C25.0001 2.41384 23.5862 1 21.8422 1C20.0981 1 18.6843 2.41384 18.6843 4.15789C18.6843 5.90195 20.0981 7.31579 21.8422 7.31579Z" stroke="black" stroke-width="2" stroke-miterlimit="10" stroke-linecap="round" stroke-linejoin="round"/>
<path d="M4.15789 17.4213C5.90195 17.4213 7.31579 16.0074 7.31579 14.2634C7.31579 12.5193 5.90195 11.1055 4.15789 11.1055C2.41384 11.1055 1 12.5193 1 14.2634C1 16.0074 2.41384 17.4213 4.15789 17.4213Z" stroke="black" stroke-width="2" stroke-miterlimit="10" stroke-linecap="round" stroke-linejoin="round"/>
<path d="M21.8422 25.0004C23.5862 25.0004 25.0001 23.5865 25.0001 21.8425C25.0001 20.0984 23.5862 18.6846 21.8422 18.6846C20.0981 18.6846 18.6843 20.0984 18.6843 21.8425C18.6843 23.5865 20.0981 25.0004 21.8422 25.0004Z" stroke="black" stroke-width="2" stroke-miterlimit="10" stroke-linecap="round" stroke-linejoin="round"/>
<path d="M7.31573 15.5264L18.6842 20.579" stroke="black" stroke-width="2" stroke-miterlimit="10" stroke-linecap="round" stroke-linejoin="round"/>
<path d="M18.6842 6.05273L7.31573 12.3685" stroke="black" stroke-width="2" stroke-miterlimit="10" stroke-linecap="round" stroke-linejoin="round"/>
</svg>
