<svg width="36" height="36" viewBox="0 0 36 36" fill="none" xmlns="http://www.w3.org/2000/svg">
<path d="M13.5 33H22.5C30 33 33 30 33 22.5V13.5C33 6 30 3 22.5 3H13.5C6 3 3 6 3 13.5V22.5C3 30 6 33 13.5 33Z" stroke="black" stroke-width="1.5" stroke-linecap="round" stroke-linejoin="round"/>
<path d="M18 23.25C18.6894 23.25 19.3721 23.1142 20.0091 22.8504C20.646 22.5865 21.2248 22.1998 21.7123 21.7123C22.1998 21.2248 22.5865 20.646 22.8504 20.0091C23.1142 19.3721 23.25 18.6894 23.25 18C23.25 17.3106 23.1142 16.6279 22.8504 15.9909C22.5865 15.354 22.1998 14.7752 21.7123 14.2877C21.2248 13.8002 20.646 13.4135 20.0091 13.1496C19.3721 12.8858 18.6894 12.75 18 12.75C16.6076 12.75 15.2723 13.3031 14.2877 14.2877C13.3031 15.2723 12.75 16.6076 12.75 18C12.75 19.3924 13.3031 20.7277 14.2877 21.7123C15.2723 22.6969 16.6076 23.25 18 23.25Z" stroke="black" stroke-width="1.5" stroke-linecap="round" stroke-linejoin="round"/>
<path d="M26.4541 10.5H26.4721" stroke="black" stroke-width="2" stroke-linecap="round" stroke-linejoin="round"/>
</svg>
