<svg width="19" height="18" viewBox="0 0 19 18" fill="none" xmlns="http://www.w3.org/2000/svg">
<path d="M17.075 4.5H14.7687C14.4875 3.20625 13.3625 2.25 12.0125 2.25C10.6625 2.25 9.53745 3.20625 9.2562 4.5H1.32495V5.625H9.2562C9.53745 6.91875 10.6625 7.875 12.0125 7.875C13.3625 7.875 14.4875 6.91875 14.7687 5.625H17.075V4.5ZM12.0125 6.75C11.0562 6.75 10.325 6.01875 10.325 5.0625C10.325 4.10625 11.0562 3.375 12.0125 3.375C12.9687 3.375 13.7 4.10625 13.7 5.0625C13.7 6.01875 12.9687 6.75 12.0125 6.75Z" fill="black"/>
<path d="M1.32495 13.5H3.6312C3.91245 14.7937 5.03745 15.75 6.38745 15.75C7.73745 15.75 8.86245 14.7937 9.1437 13.5H17.075V12.375H9.1437C8.86245 11.0813 7.73745 10.125 6.38745 10.125C5.03745 10.125 3.91245 11.0813 3.6312 12.375H1.32495V13.5ZM6.38745 11.25C7.3437 11.25 8.07495 11.9812 8.07495 12.9375C8.07495 13.8937 7.3437 14.625 6.38745 14.625C5.4312 14.625 4.69995 13.8937 4.69995 12.9375C4.69995 11.9812 5.4312 11.25 6.38745 11.25Z" fill="black"/>
</svg>
