<svg width="19" height="18" viewBox="0 0 19 18" fill="none" xmlns="http://www.w3.org/2000/svg">
<path d="M9.19995 0C7.41992 0 5.67986 0.527841 4.19982 1.51677C2.71978 2.50571 1.56623 3.91131 0.885039 5.55585C0.203851 7.20038 0.0256207 9.00998 0.372888 10.7558C0.720155 12.5016 1.57732 14.1053 2.83599 15.364C4.09467 16.6226 5.69831 17.4798 7.44414 17.8271C9.18997 18.1743 10.9996 17.9961 12.6441 17.3149C14.2886 16.6337 15.6942 15.4802 16.6832 14.0001C17.6721 12.5201 18.2 10.78 18.2 9C18.2 7.8181 17.9672 6.64778 17.5149 5.55585C17.0626 4.46392 16.3996 3.47177 15.5639 2.63604C14.7282 1.80031 13.736 1.13738 12.6441 0.685084C11.5522 0.232792 10.3819 0 9.19995 0ZM9.19995 16.2C7.77593 16.2 6.38388 15.7777 5.19985 14.9866C4.01581 14.1954 3.09297 13.0709 2.54802 11.7553C2.00307 10.4397 1.86049 8.99201 2.1383 7.59535C2.41611 6.19868 3.10185 4.91577 4.10879 3.90883C5.11572 2.90189 6.39864 2.21616 7.7953 1.93835C9.19197 1.66053 10.6396 1.80312 11.9553 2.34807C13.2709 2.89302 14.3954 3.81586 15.1865 4.99989C15.9777 6.18393 16.4 7.57597 16.4 9C16.4 10.9096 15.6414 12.7409 14.2911 14.0912C12.9409 15.4414 11.1095 16.2 9.19995 16.2Z" fill="#231F20"/>
<path d="M11.8998 5.39941C11.6611 5.39941 11.4321 5.49424 11.2634 5.66302C11.0946 5.8318 10.9998 6.06072 10.9998 6.29941V11.6994C10.9998 11.9381 11.0946 12.167 11.2634 12.3358C11.4321 12.5046 11.6611 12.5994 11.8998 12.5994C12.1385 12.5994 12.3674 12.5046 12.5362 12.3358C12.7049 12.167 12.7998 11.9381 12.7998 11.6994V6.29941C12.7998 6.06072 12.7049 5.8318 12.5362 5.66302C12.3674 5.49424 12.1385 5.39941 11.8998 5.39941Z" fill="#231F20"/>
<path d="M6.50034 5.39941C6.26165 5.39941 6.03273 5.49424 5.86395 5.66302C5.69516 5.8318 5.60034 6.06072 5.60034 6.29941V11.6994C5.60034 11.9381 5.69516 12.167 5.86395 12.3358C6.03273 12.5046 6.26165 12.5994 6.50034 12.5994C6.73904 12.5994 6.96795 12.5046 7.13674 12.3358C7.30552 12.167 7.40034 11.9381 7.40034 11.6994V6.29941C7.40034 6.06072 7.30552 5.8318 7.13674 5.66302C6.96795 5.49424 6.73904 5.39941 6.50034 5.39941Z" fill="#231F20"/>
</svg>
