<svg width="120" height="120" viewBox="0 0 120 120" fill="none" xmlns="http://www.w3.org/2000/svg">
<g clip-path="url(#clip0_1265_1938)">
<path d="M40.8279 27.7734V100.5L13.6491 100.499C11.2553 100.499 9.65691 98.0084 10.6356 95.8032L40.8279 27.7734Z" fill="black"/>
<path d="M63.7649 59.0231V97.1667C63.7649 99.0076 62.2865 100.5 60.4627 100.5H40.8279V27.7734H59.337C61.1607 27.7734 62.6392 29.2657 62.6392 31.1067V40.6525C62.6392 40.9138 62.849 41.1255 63.1078 41.1255C63.3051 41.1255 63.481 41.0003 63.5507 40.8139C65.1597 36.5117 67.8422 33.1276 71.5982 30.6616C75.4445 28.1048 80.0257 26.8264 85.3417 26.8264C90.4075 26.8264 94.8011 27.9785 98.5223 30.2828C102.275 32.5555 105.183 35.7436 107.247 39.8471C109.342 43.9191 110.374 48.6854 110.343 54.1462V97.1667C110.343 99.0076 108.864 100.5 107.04 100.5H90.7077C88.884 100.5 87.4055 99.0076 87.4055 97.1667V58.6917C87.4368 54.6513 86.4205 51.4948 84.3567 49.222C82.3241 46.9493 79.4941 45.813 75.8667 45.813C73.4589 45.813 71.3324 46.3496 69.4875 47.4228C67.6738 48.4645 66.2666 49.9638 65.2659 51.9209C64.2965 53.8779 63.7962 56.2453 63.7649 59.0231Z" fill="black"/>
<path d="M61.3881 10.4999C61.3881 16.0227 56.9528 20.4998 51.4816 20.4998C46.0104 20.4998 41.5751 16.0227 41.5751 10.4999C41.5751 4.97711 46.0104 0.5 51.4816 0.5C56.9528 0.5 61.3881 4.97711 61.3881 10.4999Z" fill="black"/>
<path d="M0.843261 106.81C0.567119 106.81 0.343262 106.586 0.343262 106.31V104.455C0.343262 104.178 0.567119 103.955 0.843262 103.955H12.6373V106.31C12.6373 106.586 12.4134 106.81 12.1373 106.81H8.72678C8.45064 106.81 8.22678 107.034 8.22678 107.31V118C8.22678 118.276 8.00293 118.5 7.72678 118.5H5.26088C4.98473 118.5 4.76088 118.276 4.76088 118V107.31C4.76088 107.034 4.53702 106.81 4.26088 106.81H0.843261Z" fill="black"/>
<path d="M16.1112 112.278V118C16.1112 118.276 15.8874 118.5 15.6112 118.5H13.1382C12.862 118.5 12.6382 118.276 12.6382 118L12.6373 103.955H15.4976C15.7737 103.955 15.9976 104.178 15.9976 104.455V109.523C15.9976 109.562 16.0294 109.594 16.0687 109.594C16.0985 109.594 16.1251 109.575 16.1357 109.547C16.3833 108.897 16.78 108.387 17.3257 108.017C17.8892 107.638 18.5781 107.449 19.3925 107.449C20.1595 107.449 20.8271 107.619 21.3953 107.96C21.9635 108.296 22.4038 108.772 22.7163 109.388C23.0336 110.003 23.1898 110.723 23.1851 111.547V112.819V112.948V118C23.1851 118.276 22.9612 118.5 22.6851 118.5H20.2121C19.9359 118.5 19.7121 118.276 19.7121 118V112.229C19.7168 111.623 19.5653 111.149 19.2575 110.808C18.9498 110.467 18.5165 110.297 17.9578 110.297C17.5932 110.297 17.2713 110.377 16.9919 110.538C16.7173 110.695 16.5018 110.92 16.3456 111.213C16.1941 111.507 16.116 111.862 16.1112 112.278Z" fill="black"/>
<path d="M37.2677 107.591V118.5L33.1525 118.5C32.79 118.5 32.548 118.126 32.6962 117.796L33.4054 116.213L33.6776 115.605L37.2677 107.591Z" fill="black"/>
<path d="M40.7407 112.279V118C40.7407 118.276 40.5169 118.5 40.2407 118.5H37.2677V107.591H40.0703C40.3464 107.591 40.5703 107.815 40.5703 108.091V109.523C40.5703 109.562 40.6021 109.594 40.6412 109.594C40.6711 109.594 40.6977 109.575 40.7083 109.547C40.9519 108.902 41.3581 108.394 41.9268 108.024C42.5092 107.641 43.2029 107.449 44.0078 107.449C44.7748 107.449 45.4401 107.622 46.0035 107.967C46.5717 108.308 47.0121 108.787 47.3246 109.402C47.6418 110.013 47.798 110.728 47.7933 111.547V118C47.7933 118.276 47.5694 118.5 47.2933 118.5H44.8203C44.5441 118.5 44.3203 118.276 44.3203 118V112.229C44.325 111.623 44.1711 111.149 43.8586 110.808C43.5509 110.467 43.1224 110.297 42.5731 110.297C42.2085 110.297 41.8866 110.378 41.6072 110.538C41.3326 110.695 41.1195 110.92 40.968 111.213C40.8212 111.507 40.7455 111.862 40.7407 112.279Z" fill="black"/>
<path d="M53.7494 107.435C54.0256 107.435 54.2494 107.659 54.2494 107.935V109.492C54.2494 109.768 54.0256 109.992 53.7494 109.992H47.8673C47.5912 109.992 47.3673 109.768 47.3673 109.492V107.935C47.3673 107.659 47.5912 107.435 47.8673 107.435H53.7494ZM48.8091 105.321C48.8091 105.045 49.033 104.821 49.3091 104.821H51.7821C52.0583 104.821 52.2821 105.045 52.2821 105.321V114.913C52.2821 115.127 52.3153 115.299 52.3815 115.432C52.4526 115.56 52.5544 115.652 52.6869 115.709C52.8195 115.761 52.9781 115.787 53.1628 115.787C53.2954 115.787 53.435 115.775 53.5818 115.752C53.7687 115.717 53.9552 115.835 53.9942 116.021L54.3528 117.732C54.4066 117.989 54.2528 118.243 53.998 118.305C53.9198 118.324 53.8356 118.344 53.7452 118.365C53.4469 118.436 53.0894 118.481 52.6727 118.5C51.8583 118.538 51.16 118.443 50.5776 118.216C49.9999 117.984 49.5572 117.624 49.2494 117.136C48.9464 116.649 48.7996 116.036 48.8091 115.297V105.321Z" fill="black"/>
<path d="M59.1003 119.068C57.9592 119.068 56.9744 118.843 56.1458 118.394C55.3219 117.939 54.6874 117.293 54.2424 116.455C53.802 115.612 53.5818 114.61 53.5818 113.45C53.5818 112.324 53.8044 111.339 54.2494 110.496C54.6945 109.648 55.3219 108.99 56.1316 108.521C56.9412 108.048 57.8953 107.811 58.9938 107.811C59.7703 107.811 60.4805 107.932 61.1245 108.173C61.7684 108.415 62.3248 108.772 62.7935 109.246C63.2623 109.719 63.6269 110.304 63.8873 111C64.1477 111.691 64.2779 112.485 64.2779 113.379V113.746C64.2779 114.022 64.054 114.246 63.7779 114.246H55.2963C55.0202 114.246 54.7963 114.022 54.7963 113.746V112.729C54.7963 112.453 55.0202 112.229 55.2963 112.229H60.5399C60.8186 112.229 61.0514 111.998 60.9829 111.728C60.9391 111.555 60.8727 111.393 60.7836 111.242C60.6131 110.953 60.3787 110.728 60.0804 110.567C59.7869 110.401 59.4483 110.318 59.0648 110.318C58.6765 110.318 58.3285 110.406 58.0208 110.581C57.713 110.752 57.4692 110.986 57.2893 111.284C57.1093 111.578 57.0146 111.912 57.0052 112.286V114.338C57.0052 114.783 57.0928 115.174 57.2679 115.51C57.4431 115.842 57.6917 116.1 58.0137 116.284C58.3357 116.469 58.7192 116.561 59.1642 116.561C59.472 116.561 59.7514 116.519 60.0023 116.433C60.2533 116.348 60.4687 116.223 60.6486 116.057C60.7427 115.97 60.8245 115.873 60.8939 115.766C61.0103 115.586 61.1974 115.45 61.4114 115.457L63.6588 115.522C63.9655 115.53 64.1943 115.812 64.0982 116.104C63.9389 116.587 63.6957 117.021 63.3688 117.406C62.9237 117.932 62.339 118.342 61.6145 118.635C60.8901 118.924 60.052 119.068 59.1003 119.068Z" fill="black"/>
<path d="M64.7424 118.628C64.4662 118.628 64.2424 118.404 64.2424 118.128V108.219C64.2424 107.943 64.4662 107.719 64.7424 107.719H67.116C67.3921 107.719 67.616 107.943 67.616 108.219V109.643C67.616 109.679 67.6449 109.708 67.6805 109.708C67.7095 109.708 67.7349 109.688 67.7429 109.66C67.9428 108.964 68.2627 108.445 68.7026 108.102C69.1524 107.747 69.6756 107.57 70.2722 107.57C70.4332 107.57 70.5989 107.582 70.7694 107.605C70.8062 107.609 70.8426 107.614 70.8783 107.619C71.0984 107.651 71.2452 107.851 71.2452 108.073V110.048C71.2452 110.375 70.9169 110.621 70.5918 110.581C70.3267 110.548 70.0899 110.531 69.8816 110.531C69.4697 110.531 69.098 110.624 68.7665 110.808C68.4398 110.988 68.1818 111.242 67.9924 111.568C67.8077 111.89 67.7154 112.269 67.7154 112.705V118.128C67.7154 118.404 67.4915 118.628 67.2154 118.628H64.7424Z" fill="black"/>
<path d="M83.1245 103.848C83.4006 103.848 83.6245 104.072 83.6245 104.348V117.894C83.6245 118.17 83.4006 118.394 83.1245 118.394H80.9041C80.7397 118.394 80.5858 118.313 80.4925 118.177L74.8712 110.025C74.8599 110.009 74.8413 109.999 74.8214 109.999C74.788 109.999 74.7608 110.026 74.7608 110.059V117.894C74.7608 118.17 74.537 118.394 74.2608 118.394H71.7452C71.4691 118.394 71.2452 118.17 71.2452 117.894V104.348C71.2452 104.072 71.4691 103.848 71.7452 103.848H74.0068C74.172 103.848 74.3265 103.93 74.4197 104.066L79.9717 112.194C79.9864 112.216 80.0108 112.229 80.0369 112.229C80.0806 112.229 80.116 112.193 80.116 112.15V104.348C80.116 104.072 80.3398 103.848 80.616 103.848H83.1245Z" fill="black"/>
<path d="M89.143 118.394C88.0019 118.394 87.017 118.169 86.1884 117.719C85.3645 117.264 84.7301 116.618 84.285 115.78C83.8447 114.937 83.6245 113.936 83.6245 112.776C83.6245 111.649 83.847 110.664 84.2921 109.821C84.7372 108.974 85.3645 108.316 86.1742 107.847C86.9839 107.373 87.9379 107.137 89.0364 107.137C89.8129 107.137 90.5232 107.257 91.1671 107.499C91.811 107.74 92.3674 108.098 92.8361 108.571C93.3049 109.045 93.6695 109.629 93.9299 110.325C94.1903 111.017 94.3205 111.81 94.3205 112.705V113.071C94.3205 113.347 94.0967 113.571 93.8205 113.571H85.339C85.0628 113.571 84.839 113.347 84.839 113.071V112.054C84.839 111.778 85.0628 111.554 85.339 111.554H90.5825C90.8612 111.554 91.094 111.323 91.0256 111.053C90.9817 110.88 90.9153 110.718 90.8262 110.567C90.6557 110.278 90.4214 110.053 90.1231 109.892C89.8295 109.726 89.491 109.644 89.1074 109.644C88.7192 109.644 88.3712 109.731 88.0634 109.906C87.7556 110.077 87.5118 110.311 87.3319 110.61C87.152 110.903 87.0572 111.237 87.0478 111.611V113.664C87.0478 114.109 87.1354 114.499 87.3106 114.835C87.4857 115.167 87.7343 115.425 88.0563 115.61C88.3783 115.794 88.7618 115.887 89.2069 115.887C89.5146 115.887 89.794 115.844 90.0449 115.759C90.2959 115.673 90.5113 115.548 90.6913 115.382C90.7853 115.296 90.8671 115.199 90.9365 115.091C91.0529 114.912 91.24 114.776 91.4541 114.782L93.7014 114.847C94.0081 114.856 94.237 115.138 94.1408 115.429C93.9815 115.912 93.7383 116.346 93.4114 116.732C92.9663 117.257 92.3816 117.667 91.6572 117.96C90.9327 118.249 90.0947 118.394 89.143 118.394Z" fill="black"/>
<path d="M96.6388 118.394C96.4112 118.394 96.2123 118.24 96.1549 118.02L93.5744 108.111C93.492 107.794 93.731 107.485 94.0583 107.485H96.4929C96.7293 107.485 96.9335 107.65 96.9822 107.882L98.3592 114.428C98.3648 114.454 98.3882 114.473 98.4153 114.473C98.4421 114.473 98.4653 114.455 98.4712 114.428L99.9499 107.875C100.001 107.646 100.204 107.485 100.438 107.485H103.043C103.275 107.485 103.477 107.645 103.53 107.871L105.049 114.379C105.055 114.405 105.078 114.423 105.105 114.423C105.132 114.423 105.155 114.404 105.161 114.378L106.497 107.884C106.545 107.651 106.749 107.485 106.987 107.485H109.419C109.746 107.485 109.985 107.794 109.903 108.111L107.316 118.02C107.258 118.24 107.06 118.394 106.832 118.394H103.887C103.661 118.394 103.463 118.242 103.404 118.023L101.815 112.095C101.806 112.061 101.774 112.037 101.739 112.037C101.703 112.037 101.672 112.061 101.663 112.095L100.073 118.023C100.015 118.242 99.8166 118.394 99.5903 118.394H96.6388Z" fill="black"/>
<path d="M119.31 110.219C119.371 110.499 119.145 110.748 118.858 110.756L116.642 110.815C116.389 110.822 116.181 110.629 116.057 110.408C116.021 110.344 115.978 110.282 115.928 110.223C115.782 110.043 115.59 109.904 115.353 109.804C115.121 109.7 114.851 109.648 114.543 109.648C114.141 109.648 113.798 109.728 113.514 109.889C113.234 110.05 113.097 110.268 113.102 110.543C113.097 110.756 113.182 110.941 113.357 111.097C113.537 111.253 113.857 111.378 114.316 111.473L116.418 111.871C117.507 112.079 118.317 112.425 118.847 112.908C119.382 113.391 119.652 114.03 119.657 114.825C119.652 115.574 119.43 116.225 118.989 116.779C118.554 117.333 117.957 117.763 117.2 118.071C116.442 118.374 115.576 118.526 114.6 118.526C113.042 118.526 111.814 118.206 110.914 117.567C110.174 117.034 109.696 116.352 109.48 115.521C109.407 115.236 109.634 114.975 109.929 114.968L112.386 114.907C112.631 114.901 112.834 115.079 112.944 115.298C113.048 115.505 113.2 115.674 113.4 115.806C113.717 116.014 114.122 116.118 114.614 116.118C115.06 116.118 115.422 116.035 115.701 115.869C115.98 115.704 116.122 115.484 116.127 115.209C116.122 114.963 116.014 114.766 115.801 114.619C115.587 114.468 115.254 114.35 114.799 114.264L112.896 113.902C111.802 113.703 110.987 113.336 110.452 112.801C109.917 112.262 109.652 111.575 109.657 110.742C109.652 110.012 109.846 109.39 110.239 108.874C110.632 108.353 111.191 107.955 111.916 107.681C112.64 107.406 113.495 107.269 114.479 107.269C115.957 107.269 117.122 107.579 117.974 108.199C118.683 108.711 119.129 109.385 119.31 110.219Z" fill="black"/>
<path d="M40.3809 105C40.3809 105.828 39.7093 106.5 38.8809 106.5C38.0524 106.5 37.3809 105.828 37.3809 105C37.3809 104.172 38.0524 103.5 38.8809 103.5C39.7093 103.5 40.3809 104.172 40.3809 105Z" fill="black"/>
<path fill-rule="evenodd" clip-rule="evenodd" d="M33.4054 116.213C33.5126 116.02 33.6033 115.817 33.6776 115.605L33.4054 116.213ZM23.1848 112.882C23.1848 112.904 23.1849 112.926 23.1851 112.948V112.819C23.1849 112.84 23.1848 112.861 23.1848 112.882ZM24.3993 113.178C24.3993 113.454 24.6232 113.678 24.8993 113.678H26.6081V111.717C26.6086 111.698 26.6093 111.679 26.6102 111.661H24.8993C24.6232 111.661 24.3993 111.884 24.3993 112.161V113.178Z" fill="black"/>
<path d="M25.7488 117.825C26.5774 118.275 27.5622 118.5 28.7033 118.5C29.655 118.5 30.4931 118.356 31.2175 118.067C31.9419 117.773 32.5267 117.364 32.9718 116.838C33.138 116.642 33.2825 116.434 33.4054 116.213L33.6776 115.605C33.6856 115.582 33.6935 115.559 33.7012 115.536C33.7973 115.244 33.5684 114.962 33.2618 114.953L31.0144 114.888C30.8004 114.882 30.6132 115.018 30.4969 115.198C30.4274 115.305 30.3457 115.402 30.2516 115.489C30.0717 115.654 29.8562 115.78 29.6053 115.865C29.3543 115.95 29.075 115.993 28.7672 115.993C28.3222 115.993 27.9386 115.901 27.6167 115.716C27.2947 115.531 27.0461 115.273 26.8709 114.942C26.6957 114.606 26.6081 114.215 26.6081 113.77V113.678H24.8993C24.6232 113.678 24.3993 113.454 24.3993 113.178V112.161C24.3993 111.884 24.6232 111.661 24.8993 111.661H26.6102C26.6275 111.309 26.7215 110.995 26.8922 110.716C27.0722 110.418 27.316 110.183 27.6238 110.013C27.9315 109.838 28.2795 109.75 28.6678 109.75C29.0513 109.75 29.3899 109.833 29.6834 109.999C29.9817 110.16 30.2161 110.384 30.3865 110.673C30.4756 110.824 30.5421 110.986 30.5859 111.159C30.6544 111.429 30.4215 111.661 30.1429 111.661H26.6102C26.6093 111.679 26.6086 111.698 26.6081 111.717V113.678H33.3809C33.657 113.678 33.8809 113.454 33.8809 113.178V112.811C33.8809 111.916 33.7507 111.123 33.4902 110.432C33.2298 109.736 32.8652 109.151 32.3965 108.678C31.9277 108.204 31.3714 107.847 30.7275 107.605C30.0835 107.364 29.3733 107.243 28.5968 107.243C27.4983 107.243 26.5442 107.48 25.7346 107.953C24.9249 108.422 24.2975 109.08 23.8525 109.928C23.4158 110.755 23.1933 111.718 23.1851 112.819V112.948C23.1933 114.08 23.4133 115.06 23.8454 115.886C24.2904 116.724 24.9249 117.371 25.7488 117.825Z" fill="black"/>
</g>
<defs>
<clipPath id="clip0_1265_1938">
<rect width="119.314" height="118.568" fill="white" transform="translate(0.343262 0.5)"/>
</clipPath>
</defs>
</svg>
